<?xml version="1.0" standalone="no"?>
<!DOCTYPE svg PUBLIC "-//W3C//DTD SVG 20010904//EN"
 "http://www.w3.org/TR/2001/REC-SVG-20010904/DTD/svg10.dtd">
<svg version="1.0" xmlns="http://www.w3.org/2000/svg"
 width="820.000000pt" height="1060.000000pt" viewBox="0 0 820.000000 1060.000000"
 preserveAspectRatio="xMidYMid meet">

<g transform="translate(0.000000,1060.000000) scale(0.100000,-0.100000)"
fill="#000000" stroke="none">
<path fill="hsl(250 47% 60%)" d="M4690 10185 c0 -5 17 -83 37 -174 35 -155 37 -177 37 -326 -1 -131
-5 -174 -22 -237 -70 -255 -202 -444 -480 -685 -406 -352 -959 -864 -1038
-960 -25 -31 -57 -78 -70 -105 -127 -251 -20 -615 292 -994 72 -88 589 -604
614 -612 16 -6 131 91 127 108 -2 8 -99 158 -216 333 -116 175 -229 354 -251
397 -110 219 -120 425 -29 619 68 147 192 285 464 519 247 213 377 334 470
439 221 248 339 454 407 713 27 101 31 133 32 255 1 105 -3 156 -17 205 -23
86 -76 194 -129 262 -50 65 -228 254 -228 243z"/>
<path fill="hsl(250 47% 60%)" d="M5715 8624 l-190 -22 -265 -117 c-356 -156 -605 -279 -719 -355 -165
-111 -340 -308 -426 -478 -119 -239 -97 -525 63 -799 22 -37 90 -138 151 -223
127 -178 156 -239 148 -318 -6 -56 -44 -147 -103 -244 -36 -59 -36 -61 -30
-133 l7 -74 -33 -5 c-46 -7 -754 -56 -918 -63 -201 -9 -489 22 -522 55 -16 16
116 97 258 158 67 29 133 56 148 60 35 9 37 14 30 78 -7 56 -7 56 -41 56 -68
0 -410 -98 -609 -175 -215 -83 -328 -155 -365 -232 -43 -89 -8 -154 114 -212
96 -46 253 -83 466 -109 l144 -18 -68 -39 c-89 -52 -186 -149 -222 -222 -55
-113 -31 -237 62 -307 85 -65 242 -117 457 -151 138 -23 631 -32 851 -16 361
26 821 92 1196 172 l101 22 0 36 c0 20 -8 51 -17 69 -29 54 -186 262 -197 262
-6 0 -65 -11 -131 -24 -420 -85 -894 -133 -1420 -142 -353 -7 -455 0 -525 36
-82 42 -90 95 -31 217 46 95 40 93 240 93 346 0 918 65 1447 165 312 59 776
167 797 185 9 8 0 109 -11 127 -5 8 -163 -1 -502 -28 -272 -21 -510 -38 -529
-39 -34 0 -32 3 140 178 191 194 234 247 279 346 83 182 58 356 -76 549 -116
169 -218 331 -243 392 -20 47 -26 77 -26 140 0 72 3 86 33 141 93 170 347 398
714 640 516 339 601 398 571 393 -4 -1 -93 -12 -198 -25z"/>
<path fill="hsl(250 47% 60%)" d="M5985 6254 c-145 -20 -183 -28 -205 -41 -59 -37 -201 -156 -193 -163
8 -7 71 -16 298 -45 130 -16 245 -44 305 -75 73 -37 120 -127 120 -229 0 -76
-14 -119 -59 -188 -79 -118 -349 -370 -501 -466 -41 -27 -149 -95 -240 -153
-91 -58 -171 -111 -178 -118 -14 -14 18 -13 229 4 276 23 573 144 830 336 166
126 273 257 326 402 31 81 41 228 23 315 -27 130 -130 275 -244 342 -99 58
-176 76 -335 80 -80 2 -159 2 -176 -1z"/>
<path fill="hsl(250 47% 60%)" d="M2902 4496 l-164 -141 39 -33 c378 -330 1161 -430 1998 -256 206 43
712 180 702 191 -2 1 -207 52 -456 112 l-451 110 -100 -19 c-351 -69 -748 -70
-1003 -4 -139 36 -272 92 -359 152 l-43 30 -163 -142z"/>
<path fill="hsl(250 47% 60%)" d="M2300 4134 c-14 -2 -65 -9 -115 -15 -118 -15 -311 -63 -405 -102
-261 -107 -368 -247 -330 -430 36 -174 264 -270 754 -317 l109 -11 91 -76
c110 -92 175 -134 280 -184 171 -79 434 -148 691 -180 131 -17 576 -17 735 -1
443 46 878 142 1545 342 397 119 1001 332 1033 365 4 3 -37 135 -41 135 -1 0
-24 -7 -52 -16 -106 -32 -460 -125 -660 -173 -1140 -272 -2236 -375 -3043
-286 -303 34 -434 68 -227 60 365 -14 1250 29 2065 101 791 69 979 97 1212
180 319 115 498 304 434 457 -13 33 -134 147 -155 147 -7 0 -11 -24 -11 -70
l0 -70 -52 -30 c-135 -77 -508 -173 -943 -244 -728 -118 -1083 -129 -2300 -66
-214 11 -430 27 -480 34 -102 15 -165 38 -165 60 0 24 122 128 206 176 43 25
149 73 234 107 85 34 152 62 148 62 -4 1 -76 12 -160 26 -140 23 -312 31 -398
19z"/>
<path fill="hsl(250 47% 60%)" d="M2035 2858 c-3 -7 -6 -434 -7 -948 l-3 -935 -28 -82 c-42 -125 -121
-221 -235 -286 l-40 -23 75 -91 76 -92 61 31 c159 80 296 202 349 312 16 31
38 94 50 139 22 82 22 87 22 1032 l0 950 -158 3 c-120 2 -159 0 -162 -10z"/>
<path fill="hsl(250 47% 60%)" d="M5720 2383 c-99 -15 -201 -40 -295 -70 -60 -19 -111 -36 -113 -38 -4
-4 35 -165 42 -172 4 -4 80 5 169 20 173 29 331 35 402 16 51 -14 110 -73 124
-124 6 -22 11 -72 11 -112 0 -60 -3 -73 -17 -77 -10 -3 -94 -21 -188 -41 -404
-85 -497 -130 -570 -278 -106 -216 -35 -482 153 -574 42 -21 74 -28 140 -31
104 -6 183 8 376 64 82 24 151 44 152 44 1 0 8 -16 14 -35 19 -57 46 -68 142
-59 46 4 89 7 96 5 10 -2 12 109 10 586 -4 682 1 645 -102 749 -68 68 -129 97
-256 120 -69 12 -232 17 -290 7z m345 -920 c-3 -76 -12 -156 -18 -177 -22 -78
-101 -128 -244 -156 -186 -37 -319 134 -239 307 29 62 77 97 156 114 65 14
282 46 324 48 l28 1 -7 -137z"/>
<path fill="hsl(250 47% 60%)" d="M3140 2373 c-164 -11 -388 -49 -454 -77 -49 -20 -55 -51 -27 -139 20
-61 25 -68 44 -64 224 49 290 59 392 59 119 0 180 -15 223 -55 53 -49 79 -143
67 -241 l-7 -53 -86 -6 c-141 -9 -420 -81 -532 -138 -187 -94 -261 -346 -164
-559 68 -149 256 -231 467 -203 101 14 170 39 267 98 41 24 80 45 86 45 6 0
22 -27 34 -60 l23 -61 106 3 106 3 6 30 c10 47 9 750 -1 950 -6 111 -15 201
-25 234 -45 147 -138 212 -334 231 -53 5 -107 9 -121 8 -14 -1 -45 -3 -70 -5z
m246 -830 c4 -32 8 -98 8 -148 0 -146 -33 -188 -186 -241 -110 -37 -173 -41
-228 -12 -26 13 -58 41 -75 66 -28 41 -30 50 -30 131 0 76 3 92 24 123 50 72
91 87 326 118 72 10 135 18 142 19 7 1 15 -22 19 -56z"/>
<path fill="hsl(250 47% 60%)" d="M3874 2352 c-8 -5 12 -84 68 -262 105 -341 227 -745 273 -907 47
-165 79 -223 138 -252 41 -20 54 -21 168 -15 119 7 124 8 156 38 26 24 47 66
94 191 106 280 139 376 184 535 48 168 175 658 175 672 0 4 -70 8 -155 8
l-154 0 -9 -34 c-6 -19 -65 -259 -133 -535 -111 -452 -125 -502 -142 -499 -21
3 -27 20 -213 638 -52 173 -106 334 -119 356 -35 59 -78 74 -213 74 -59 0
-112 -4 -118 -8z"/>
</g>
</svg>
